# xmcd
#
# Track frame offsets: 
#        150
#        17540
#        33731
#        49997
#        69804
#        91561
#        104635
#        125344
#        143324
#        157393
#        180389
#
# Disc length: 2761 seconds
#
# Revision: 0
# Processed by: cddbd v1.5.2PL0 Copyright (c) Steve Scherf et al.
# Submitted via: ExactAudioCopy v1.0b4
#
DISCID=880ac70b
DTITLE=The Blues Mystery - Diesel Rock
DYEAR=2015
DGENRE=Blues-Rock
TTITLE0=Grimaces On the Bad Mood
TTITLE1=Don't Get Close to Me Today
TTITLE2=The Motorbikes Are Roaring
TTITLE3=Wild Love (Tamed By the Child)
TTITLE4=Half a Man
TTITLE5=I'm Coming Back
TTITLE6=A Daughter Can Break Your Heart
TTITLE7=With Just One Look
TTITLE8=Son
TTITLE9=Diesel Rock
TTITLE10=Over the Mountains
EXTD=
EXTT0=
EXTT1=
EXTT2=
EXTT3=
EXTT4=
EXTT5=
EXTT6=
EXTT7=
EXTT8=
EXTT9=
EXTT10=
PLAYORDER=
